<svg width="140" height="153" viewBox="0 0 140 153" fill="none" xmlns="http://www.w3.org/2000/svg">
<path d="M117.836 69.6802C120.137 70.6189 122.763 69.5144 123.702 67.2131L138.998 29.7129C139.937 27.4117 138.832 24.7853 136.531 23.8466C134.23 22.9079 131.604 24.0125 130.665 26.3137L117.068 59.6472L83.7345 46.0504C81.4333 45.1118 78.8069 46.2163 77.8682 48.5175C76.9295 50.8187 78.0341 53.4452 80.3353 54.3838L117.836 69.6802ZM17.5352 65.5137L21.8178 66.8953C32.8459 32.712 44.3199 17.0833 54.33 11.5496C63.5465 6.45468 72.8338 9.40339 82.207 17.4579C91.5914 25.522 99.8829 37.8437 105.914 48.4388C108.901 53.6867 111.279 58.4132 112.908 61.8239C113.722 63.5278 114.347 64.8996 114.767 65.8393C114.976 66.309 115.134 66.6705 115.238 66.9112C115.29 67.0315 115.329 67.1216 115.354 67.18C115.366 67.2091 115.375 67.2304 115.381 67.2434C115.384 67.25 115.386 67.2545 115.387 67.2569C115.387 67.2582 115.387 67.2584 115.387 67.259C115.387 67.2588 115.387 67.258 119.535 65.5135C123.683 63.769 123.682 63.7672 123.682 63.7649C123.681 63.7634 123.68 63.7606 123.678 63.7576C123.676 63.7518 123.673 63.7438 123.668 63.7338C123.66 63.7137 123.648 63.6855 123.632 63.6492C123.601 63.5767 123.557 63.472 123.498 63.3369C123.381 63.0666 123.21 62.6741 122.986 62.1721C122.538 61.1683 121.88 59.7253 121.029 57.9444C119.329 54.3854 116.851 49.4615 113.735 43.9868C107.559 33.1366 98.6533 19.724 88.0726 10.6319C77.4807 1.53017 64.0354 -4.09921 49.9758 3.67304C36.7097 11.0066 24.3639 29.6904 13.2525 64.132L17.5352 65.5137Z" fill="#D3D3D3"/>
<path d="M21.2056 82.3353C18.8979 81.4128 16.2793 82.5356 15.3567 84.8433L0.322619 122.45C-0.599943 124.757 0.522936 127.376 2.83064 128.298C5.13835 129.221 7.75699 128.098 8.67956 125.79L22.0432 92.3627L55.4709 105.726C57.7786 106.649 60.3973 105.526 61.3198 103.218C62.2424 100.911 61.1195 98.292 58.8118 97.3694L21.2056 82.3353ZM123.535 86.5137L119.26 85.1076C108.022 119.273 96.3273 134.912 86.0938 140.46C76.6091 145.602 67.0632 142.597 57.5049 134.542C47.9301 126.472 39.4753 114.148 33.3284 103.556C30.2831 98.3085 27.8587 93.5826 26.1978 90.1726C25.368 88.469 24.7305 87.0976 24.3032 86.1582C24.0896 85.6887 23.9286 85.3273 23.8224 85.0868C23.7694 84.9665 23.73 84.8765 23.7047 84.8182C23.692 84.7891 23.6828 84.7679 23.6772 84.7548C23.6744 84.7483 23.6725 84.7438 23.6714 84.7414C23.6709 84.7402 23.6708 84.7399 23.6705 84.7393C23.6706 84.7396 23.671 84.7404 19.5352 86.5138C15.3993 88.2872 15.4001 88.289 15.4011 88.2914C15.4018 88.2929 15.403 88.2957 15.4043 88.2987C15.4068 88.3046 15.4102 88.3126 15.4146 88.3226C15.4232 88.3427 15.4355 88.371 15.4513 88.4073C15.4829 88.4799 15.5286 88.5846 15.5883 88.7199C15.7076 88.9903 15.8826 89.3829 16.1111 89.8851C16.5679 90.8892 17.2389 92.3325 18.1066 94.1137C19.8405 97.6734 22.3667 102.598 25.5443 108.073C31.843 118.927 40.9231 132.337 51.7049 141.423C62.5032 150.524 76.1356 156.097 90.3835 148.372C103.883 141.053 116.475 122.379 127.81 87.9198L123.535 86.5137Z" fill="#D3D3D3"/>
</svg>
