<svg width="66" height="64" viewBox="0 0 66 64" fill="none" xmlns="http://www.w3.org/2000/svg">
<path d="M33 0C51.2254 2.18167e-05 66 14.2138 66 31.7471C65.9998 49.2802 51.2253 63.4931 33 63.4932C14.7747 63.4932 0.000156448 49.2802 0 31.7471C0 14.2138 14.7746 0 33 0ZM33 38.4307C23.5416 38.4307 15.8736 42.1704 15.873 46.7842C15.873 51.3982 23.5413 55.1387 33 55.1387C42.4587 55.1386 50.126 51.3982 50.126 46.7842C50.1254 42.1704 42.4584 38.4307 33 38.4307ZM32.999 13.3672C26.3088 13.3672 20.8849 18.2295 20.8848 24.2275C20.8848 30.2258 26.3087 35.0889 32.999 35.0889C39.6892 35.0887 45.1123 30.2257 45.1123 24.2275C45.1121 18.2295 39.6891 13.3673 32.999 13.3672Z" fill="black"/>
</svg>
